<svg xmlns="http://www.w3.org/2000/svg" viewBox="0 0 120 120">
  <rect width="120" height="120" rx="12" fill="#0b0d0c"/>
  <path
    d="M18 43V18h25M77 18h25v25M102 77v25H77M43 102H18V77"
    fill="none"
    stroke="#ffffff"
    stroke-width="4"
    stroke-linecap="square"
    stroke-linejoin="miter"
  />
  <path
    d="M93 42c-7-7-15-10-24-10-4-8-12-13-21-11-9 1-15 8-16 17-9 4-15 13-15 23 0 16 13 29 29 29h24c10 0 18-4 24-11"
    fill="none"
    stroke="#ff9900"
    stroke-width="4.5"
    stroke-linecap="square"
    stroke-linejoin="miter"
  />
  <path
    d="M38 83 60 39 82 83"
    fill="none"
    stroke="#ffffff"
    stroke-width="6"
    stroke-linecap="square"
    stroke-linejoin="miter"
  />
  <circle cx="94" cy="42" r="5" fill="#ff9900"/>
  <circle cx="94" cy="79" r="5" fill="#ff9900"/>
</svg>
